<?xml version="1.0" encoding="utf-8"?>
<!-- Generator: Adobe Illustrator 18.0.0, SVG Export Plug-In . SVG Version: 6.00 Build 0)  -->
<!DOCTYPE svg PUBLIC "-//W3C//DTD SVG 1.1//EN" "http://www.w3.org/Graphics/SVG/1.1/DTD/svg11.dtd">
<svg version="1.1" id="Layer_1" xmlns="http://www.w3.org/2000/svg" xmlns:xlink="http://www.w3.org/1999/xlink" x="0px" y="0px"
	 viewBox="0 0 630.4 120" enable-background="new 0 0 630.4 120" xml:space="preserve">
<g>
	<g>
		<path fill="#19202C" d="M171,38.4c3.8,3.3,5.7,8.5,5.7,15.4s-1.9,12-5.8,15.2c-3.9,3.2-9.9,4.8-17.9,4.8h-7.2v15.6h-12.1V33.4
			h19.1C161.1,33.4,167.2,35.1,171,38.4z M162.1,60.4c1.4-1.7,2.2-4.1,2.2-7.4c0-3.2-0.9-5.5-2.8-6.9c-1.9-1.4-4.8-2-8.8-2h-6.9V63
			h8.1C157.9,63,160.7,62.1,162.1,60.4z"/>
		<path fill="#19202C" d="M223.8,67.8c0,6.2-2.1,11.5-6.3,15.8s-9.4,6.4-15.8,6.4s-11.6-2.1-15.8-6.4s-6.3-9.5-6.3-15.8
			c0-6.2,2.1-11.5,6.3-15.8c4.2-4.3,9.4-6.4,15.8-6.4s11.6,2.1,15.8,6.4C221.7,56.3,223.8,61.6,223.8,67.8z M191.4,67.8
			c0,3.5,1,6.4,2.9,8.6c1.9,2.2,4.4,3.3,7.4,3.3c3,0,5.5-1.1,7.4-3.3c1.9-2.2,2.9-5.1,2.9-8.6c0-3.5-1-6.4-2.9-8.6
			c-1.9-2.2-4.4-3.4-7.4-3.4c-3,0-5.5,1.1-7.4,3.4C192.4,61.4,191.4,64.3,191.4,67.8z"/>
		<path fill="#19202C" d="M250,79.4c3.9,0,7.4-2,10.5-6l6.9,8C262,87.1,256.2,90,250,90c-6.3,0-11.5-2-15.8-6.1
			c-4.3-4.1-6.5-9.4-6.5-16c0-6.6,2.2-11.9,6.5-16.1c4.4-4.1,9.5-6.2,15.5-6.2c3,0,6,0.6,9.1,1.9c3.1,1.3,5.8,3.2,8.1,5.7l-6,8.2
			c-1.3-1.7-3-2.9-4.9-3.8c-1.9-0.9-3.9-1.4-5.8-1.4c-3,0-5.7,1-7.9,3.1c-2.2,2.1-3.3,4.9-3.3,8.6c0,3.7,1.1,6.5,3.3,8.5
			C244.5,78.3,247.1,79.4,250,79.4z"/>
		<path fill="#19202C" d="M284.4,89.4h-11.6V30h11.6v30.5l12.9-14.2H312l-15.9,17.4l16.5,25.7h-13.8l-10.6-16.5l-3.8,4.1V89.4z"/>
		<path fill="#19202C" d="M352.7,83.1c-4.7,4.6-10.2,6.9-16.5,6.9c-6.3,0-11.6-2-15.7-6c-4.1-4-6.2-9.4-6.2-16.2
			c0-6.8,2.1-12.2,6.3-16.2c4.2-4,9.2-6,14.9-6c5.7,0,10.6,1.8,14.6,5.4c4,3.6,6,8.5,6,14.7v6.4h-30.4c0.4,2.3,1.5,4.3,3.6,5.8
			c2,1.5,4.3,2.2,6.8,2.2c4.1,0,7.4-1.4,10.1-4.2L352.7,83.1z M341.5,57.6c-1.6-1.4-3.6-2.1-5.8-2.1c-2.3,0-4.4,0.7-6.3,2.2
			c-1.9,1.4-3,3.4-3.3,5.8h18.3C344.1,61,343.1,59,341.5,57.6z"/>
		<path fill="#19202C" d="M375.5,55v19.3c0,1.7,0.4,2.9,1.2,3.9c0.8,0.9,1.8,1.4,2.9,1.4c2.2,0,4-1,5.5-3l4.3,8.4
			c-3.6,3.4-7.4,5.1-11.4,5.1c-4,0-7.4-1.4-10.1-4.1c-2.8-2.7-4.1-6.4-4.1-11.1V55H359v-8.6h4.9V33.4h11.7v12.9h10.1V55H375.5z"/>
		<path fill="#19202C" d="M428.2,33.4h12.1v55.9h-12.1v-22h-21.5v22h-12.1V33.4h12.1v23.4h21.5V33.4z"/>
		<path fill="#19202C" d="M486.2,83.1c-4.7,4.6-10.2,6.9-16.5,6.9c-6.3,0-11.6-2-15.7-6c-4.1-4-6.2-9.4-6.2-16.2
			c0-6.8,2.1-12.2,6.3-16.2c4.2-4,9.2-6,14.9-6c5.7,0,10.6,1.8,14.6,5.4c4,3.6,6,8.5,6,14.7v6.4h-30.4c0.4,2.3,1.5,4.3,3.6,5.8
			c2,1.5,4.3,2.2,6.8,2.2c4.1,0,7.4-1.4,10.1-4.2L486.2,83.1z M475.1,57.6c-1.6-1.4-3.6-2.1-5.8-2.1c-2.3,0-4.4,0.7-6.3,2.2
			c-1.9,1.4-3,3.4-3.3,5.8h18.3C477.6,61,476.7,59,475.1,57.6z"/>
		<path fill="#19202C" d="M531.1,89.4h-10.9v-5.2c-3,3.9-6.7,5.8-11.1,5.8c-4.4,0-8.1-1.3-11.1-4c-3-2.6-4.5-6.2-4.5-10.6
			s1.5-7.7,4.6-9.9c3.1-2.2,7.3-3.3,12.7-3.3h8.7v-0.2c0-4.6-2.4-6.9-7-6.9c-2,0-4.1,0.4-6.4,1.2c-2.2,0.8-4.1,1.9-5.7,3.1l-5.2-7.8
			c5.5-4.1,11.7-6.2,18.7-6.2c5.1,0,9.2,1.3,12.4,3.9c3.2,2.6,4.8,6.7,4.8,12.4V89.4z M519.4,73v-2.1h-7.3c-4.6,0-7,1.5-7,4.5
			c0,1.5,0.6,2.7,1.7,3.6c1.1,0.8,2.7,1.2,4.8,1.2c2.1,0,3.9-0.7,5.5-2C518.6,76.9,519.4,75.1,519.4,73z"/>
		<path fill="#19202C" d="M551,89.4h-11.6V30H551V89.4z"/>
		<path fill="#19202C" d="M573.6,55v19.3c0,1.7,0.4,2.9,1.2,3.9c0.8,0.9,1.8,1.4,2.9,1.4c2.2,0,4-1,5.5-3l4.3,8.4
			c-3.6,3.4-7.4,5.1-11.4,5.1c-4,0-7.4-1.4-10.1-4.1c-2.8-2.7-4.1-6.4-4.1-11.1V55H557v-8.6h4.9V33.4h11.7v12.9h10.1V55H573.6z"/>
		<path fill="#19202C" d="M603.1,66.2v23.2h-11.6V30h11.6v21.1c3.5-3.7,7.4-5.5,11.8-5.5c4.4,0,8,1.6,11,4.8c3,3.2,4.5,7.5,4.5,12.8
			v26.2h-11.6V65.8c0-6.6-2.4-9.9-7-9.9c-2.3,0-4.4,0.9-6.1,2.6C603.9,60.3,603.1,62.8,603.1,66.2z"/>
	</g>
	<g>
		<g>
			<linearGradient id="SVGID_1_" gradientUnits="userSpaceOnUse" x1="-8.9274" y1="109.8643" x2="89.7826" y2="-19.218">
				<stop  offset="0" style="stop-color:#0000FF"/>
				<stop  offset="1" style="stop-color:#01FFFF"/>
			</linearGradient>
			<path fill="url(#SVGID_1_)" d="M80.2,28.4C80.2,12.7,67.5,0,51.8,0c-3.1,0-6.2,0.5-9,1.5C31.5,5.2,23.4,15.9,23.4,28.4
				c0,10,5,19.6,11.7,26.8c1.5,1.6,3.2,3.2,4.9,4.5c2.6,2.1,5.4,3.8,8.3,5.3c1.5,0.7,3,1.4,4.6,2c1.4,0.5,2.9,1.2,4.4,1.2
				c3.1,0,5.7-2.5,5.7-5.7c0-1-0.3-2-0.8-2.9c-0.6-1-1.5-1.5-2.4-2.2c-0.6-0.4-1.2-0.8-1.9-1.3C70.7,53.2,80.2,41.9,80.2,28.4z
				 M51.8,39.7c-6.3,0-11.4-5.1-11.4-11.4c0-6.3,5.1-11.4,11.4-11.4s11.4,5.1,11.4,11.4C63.2,34.7,58.1,39.7,51.8,39.7z"/>
		</g>
		<linearGradient id="SVGID_2_" gradientUnits="userSpaceOnUse" x1="7.9074" y1="122.738" x2="106.6174" y2="-6.3443">
			<stop  offset="0" style="stop-color:#0000FF"/>
			<stop  offset="1" style="stop-color:#01FFFF"/>
		</linearGradient>
		<path fill="url(#SVGID_2_)" d="M100.4,49.9c-3.7-2.9-9-2.2-11.9,1.5c0,0,0,0.1-0.1,0.1c0,0,0,0-0.1,0.1c0,0-0.3,0.4-0.9,1
			c-0.5,0.6-1.3,1.6-2.3,2.8c-0.9,1.1-1.9,2.4-3.1,3.9c-1.2,1.4-2.3,2.7-3.5,4.1l-2.6,3c0,0-0.1,0.1-0.1,0.1c-2.6,2.7-5.6,5.4-9,7.3
			c-4.2,2.4-8.7,3.7-13.5,3.2c-2.4-0.3-4.9-0.7-7.4-1.8c-1.2-0.4-2.5-1.1-3.7-1.6c-1.2-0.6-2.4-1.3-3.6-1.9
			c-1.2-0.7-2.3-1.5-3.4-2.2c-1.1-0.8-2.2-1.6-3.2-2.3c-2.1-1.6-4-3.1-5.7-4.8c-0.9-0.8-1.7-1.5-2.5-2.2c-0.7-0.7-1.5-1.4-2.1-2.1
			c-0.7-0.7-1.3-1.3-1.9-1.8c-0.6-0.6-1.2-1.2-1.7-1.8c-2-2.1-3.2-3.4-3.2-3.4c0,0,0,0-0.1-0.1C12,47.9,7,47.2,3.4,49.9
			c-3.8,2.8-4.6,8.1-1.8,11.9l0.8,1C4,64.9,5.5,67,7.1,69c1.6,2.1,3.2,4,4.9,6l2.4,2.9c0.7,0.8,1.3,1.6,1.9,2.5
			c1.2,1.7,2.3,3.5,3.3,5.3c0.5,0.9,0.9,1.9,1.3,2.8c0.4,0.9,0.8,2,1.1,2.9l2.3,7.4l4.6,14.8c1.1,3.4,4.1,6,7.9,6.4
			c5,0.4,9.4-3.3,9.8-8.3l0.4-4.4c0.2-0.1,0.4-0.1,0.6-0.2c0.4-0.1,0.8-0.2,1.1-0.3c0.4-0.1,0.7-0.1,1.1-0.2c0.7-0.1,1.3-0.1,2-0.1
			c0.7,0,1.3,0.1,2.1,0.2c0.7,0.1,1.5,0.3,2.4,0.6c0.2,0.1,0.4,0.1,0.6,0.2l0.3,4.2c0.3,3.6,2.7,6.8,6.3,7.9
			c4.8,1.5,9.9-1.1,11.4-5.9l0,0l4.7-14.8l1.2-3.7l1.1-3.6c0.6-2,1.4-3.9,2.3-5.8c0.9-1.9,2-3.7,3.2-5.4l0.9-1.3
			c0.3-0.4,0.5-0.7,0.9-1.2l1.2-1.4l1.2-1.5c1.7-2,3.3-3.9,4.9-6c0.8-1,1.6-2,2.4-3.1l2.3-3.2l0.9-1.2
			C104.7,57.9,104,52.7,100.4,49.9z"/>
	</g>
</g>
</svg>
